<?xml version="1.0" encoding="UTF-8"?>
<svg data-bbox="0 0 1064.529 146.249" viewBox="0 0 1064.528 146.248" xmlns="http://www.w3.org/2000/svg" data-type="shape">
    <g>
        <path d="m21.42 9.048 2.955-6.278.37-2.586h103.962l-21.974 138.309h-.739l-3.324 7.756H0zm36.562 81.803 5.54-34.346h-42.84L8.494 133.692h94.36L123.167 4.985H28.806l-6.832 43.024h51.52L66.661 90.85z"/>
        <path d="M159.726 138.492h-.739l-3.324 7.756h-51.334L125.934 8.863l2.77-6.279.37-2.584h52.627l-21.974 138.492ZM133.135 4.801l-20.312 128.891h43.025L176.161 4.801h-43.025Z"/>
        <path d="m263.316 138.492-3.324 7.756H157.323l21.42-137.2 2.955-6.278.37-2.586H286.03l-21.974 138.309h-.739Zm9.048-81.987h-42.841l-4.062 25.852h8.495l-1.478 8.494h-17.173l6.832-42.841h51.52l6.833-43.024h-94.36l-20.312 128.706h94.36l12.188-77.187Z"/>
        <path d="M317.049 138.492h-.739l-3.324 7.756h-51.334L283.257 8.863l2.77-6.279.37-2.584h52.627L317.05 138.492ZM290.458 4.801l-20.312 128.891h43.025L333.484 4.801z"/>
        <path d="M472.898 138.492h-.739l-3.324 7.756H417.5v-.738l-.185.738H314.646L336.251 8.863l2.77-6.279.37-2.584h155.481zM343.453 4.801l-20.312 128.891h43.025l13.48-85.865h8.495l-13.48 85.865h42.84l13.48-85.865h8.679l-13.48 85.865h42.841L489.333 4.801H343.454Z"/>
        <path d="M576.859 138.492h-.738l-3.324 7.756H470.128l21.419-137.2 2.955-6.278.37-2.586h103.961l-21.974 138.309Zm-48.75-47.826 1.477-8.494h51.52l4.062-25.667h-51.52l1.292-8.679h51.52l6.832-42.841h-94.36L478.62 133.691h94.36l6.647-43.025z"/>
        <path d="M629.854 138.492h-.738l-3.324 7.756h-51.335L596.062 8.863l2.77-6.279.369-2.584h52.628zM603.263 4.801l-20.312 128.891h43.025L646.288 4.801z"/>
        <path d="m733.444 138.492-3.324 7.756H627.45l7.94-51.335.185-.185h-.185l13.48-85.681 2.954-6.278.369-2.586h103.962l-21.974 138.309zm9.048-81.987h-51.52l1.293-8.495h51.52l6.832-43.024h-94.36l-12.188 77.187h51.335l-1.478 8.679h-51.334l-6.648 42.841h94.36l12.188-77.187Z"/>
        <path d="M849.406 52.627h-.738l-3.509 7.756h-22.713l-12.372 78.109h-.738l-3.324 7.756h-51.52l13.48-85.865h-25.668l8.125-51.335 2.955-6.278.369-2.586h103.962zm-91.59-47.642-6.832 42.841h25.667l-13.48 85.865h43.025l13.48-85.865h25.667l6.832-42.841z"/>
        <path d="M938.226 138.492h-.738l-3.324 7.756h-102.67l21.421-137.2 2.954-6.278.369-2.586H960.2l-21.974 138.309Zm-48.75-47.826 1.478-8.494h51.52l4.062-25.667h-51.52l1.293-8.679h51.52l6.832-42.841h-94.36l-20.312 128.706h94.36l6.647-43.025z"/>
        <path d="M1048.095 104.146h-.739l-3.509 7.755h-2.585l1.108 7.571 1.477 19.02h-.923l-3.324 7.756h-50.596l-.923-2.954-1.108 2.954h-51.15l21.421-137.2 2.954-6.278.369-2.586h103.962zM964.629 4.985l-6.832 42.841h51.52l-4.062 25.667h-8.679l2.77-17.173h-42.841l-12.188 77.371h42.841l5.355-34.347 3.323 34.347h42.841l-3.14-34.347h8.495l14.957-94.359z"/>
    </g>
</svg>
